<svg xmlns="http://www.w3.org/2000/svg" width="468" height="573" viewBox="0 0 468 573">
  <g id="Group_14" data-name="Group 14" transform="translate(381 1668)">
    <g id="Group_12" data-name="Group 12" transform="translate(-10 -3403)">
      <g id="Group_5" data-name="Group 5" transform="translate(-421 1689)">
        <path id="Intersection_2" data-name="Intersection 2" d="M721.1-1247.023q-23.3-9.194-35.028-24.567a57.855,57.855,0,0,1-12.363-33.761,6.705,6.705,0,0,1,2.061-4.913,6.705,6.705,0,0,1,4.913-2.061h60.23a19.046,19.046,0,0,1,7.133,1.11,26.938,26.938,0,0,1,6.5,4.28,32.5,32.5,0,0,0,12.77,6.1v50.792a12.534,12.534,0,0,1-3.865,9.176,13.7,13.7,0,0,1-3.082,2.344Q738.016-1240.348,721.1-1247.023Zm39.784-76.4Q679.1-1334.2,679.1-1393.16a62.421,62.421,0,0,1,12.2-37.881q12.2-16.643,34.077-25.835,18.57-7.8,41.935-8.984v62.6q-6.747,1.974-6.747,7.885,0,4.525,6.747,7.615v65.238Q764.249-1322.971,760.881-1323.42Z" transform="translate(-372 1735)" stroke="rgba(0,0,0,0)" stroke-miterlimit="10" stroke-width="1"/>
      </g>
      <g id="Group_6" data-name="Group 6" transform="translate(1)">
        <g id="Group_1" data-name="Group 1" transform="translate(-421 1689)">
          <text id="S_" data-name="S
" transform="translate(296 494)" fill="#fff" font-size="316" font-family="Rubik-Black, Rubik" font-weight="800" letter-spacing="0.031em"><tspan x="0" y="0">S</tspan><tspan x="0" y="1"></tspan></text>
          <text id="H" transform="translate(49 498)" fill="#fff" font-size="483" font-family="Rubik-Black, Rubik" font-weight="800"><tspan x="0" y="0">H</tspan></text>
        </g>
        <g id="Component_2_4" data-name="Component 2 – 4" transform="translate(-118.34 1959.271)">
          <path id="Intersection_1" data-name="Intersection 1" d="M75.12,227.411a126.8,126.8,0,0,1-27.294-7.145q-23.52-9.28-35.36-24.8A58.4,58.4,0,0,1-.014,161.386a6.772,6.772,0,0,1,2.08-4.96,6.771,6.771,0,0,1,4.96-2.08h60.8a19.223,19.223,0,0,1,7.2,1.12,27.2,27.2,0,0,1,6.56,4.32,32.353,32.353,0,0,0,11.2,5.712v48.737a13.333,13.333,0,0,1-13.176,13.176Zm12.865-84.265q-82.561-10.88-82.56-70.4a63.013,63.013,0,0,1,12.32-38.24q12.32-16.8,34.4-26.08Q70.215.832,92.784-.548V63.147q-5.119,2.187-5.118,7.359,0,3.959,5.118,6.831v66.469Q90.466,143.477,87.986,143.146Z" transform="translate(0.014 0.548)" fill="#61dafb"/>
        </g>
      </g>
      <path id="Path_3" data-name="Path 3" d="M-25.689,1861.406V1958.5s75.3-11.583,107.857,63.81" transform="translate(12 -10)" fill="none" stroke="#fff" stroke-linecap="round" stroke-width="3"/>
      <path id="Path_4" data-name="Path 4" d="M-344.818,2068.5v107.048s-.977,11.555,12.043,11.555h97" transform="translate(-10 10)" fill="none" stroke="#fff" stroke-linecap="round" stroke-width="2"/>
    </g>
  </g>
</svg>
